<!DOCTYPE svg PUBLIC "-//W3C//DTD SVG 1.1//EN" "http://www.w3.org/Graphics/SVG/1.1/DTD/svg11.dtd">

<!-- Uploaded to: SVG Repo, www.svgrepo.com, Transformed by: SVG Repo Mixer Tools -->
<svg fill="#ffffff" width="800px" height="800px" viewBox="-2.56 -2.56 261.12 261.12" id="Flat" xmlns="http://www.w3.org/2000/svg" stroke="#ffffff" stroke-width="0.00256">

<g id="SVGRepo_bgCarrier" stroke-width="0"/>

<g id="SVGRepo_tracerCarrier" stroke-linecap="round" stroke-linejoin="round" stroke="#CCCCCC" stroke-width="0.512"/>

<g id="SVGRepo_iconCarrier"> <path d="M77.51562,118.49707a12.0001,12.0001,0,0,1,16.96876-16.97266L116,123.03442V40a12,12,0,0,1,24,0v83.03442l21.51562-21.51a12.0001,12.0001,0,0,1,16.96876,16.97266l-42,41.98926a12.00036,12.00036,0,0,1-16.96876,0ZM216,140a12.00028,12.00028,0,0,0-12,12v52H52V152a12,12,0,0,0-24,0v56a20.02229,20.02229,0,0,0,20,20H208a20.02229,20.02229,0,0,0,20-20V152A12.00028,12.00028,0,0,0,216,140Z"/> </g>

</svg>